<svg
  xmlns="http://www.w3.org/2000/svg"
  width="17"
  height="17"
  viewBox="0 0 17 17"
  fill="none"
>
  <path
    d="M9.99999 15.25C9.99999 14.2835 9.21649 13.5 8.24999 13.5C7.2835 13.5 6.5 14.2835 6.5 15.25C6.5 16.2165 7.2835 17 8.24999 17C9.21649 17 9.99999 16.2165 9.99999 15.25Z"
    fill="#171719"
  />
  <path
    d="M8.24999 6.75C9.21649 6.75 9.99999 7.5335 9.99999 8.5C9.99999 9.4665 9.21649 10.25 8.24999 10.25C7.2835 10.25 6.5 9.4665 6.5 8.5C6.5 7.5335 7.2835 6.75 8.24999 6.75Z"
    fill="#171719"
  />
  <path
    d="M8.24999 0C9.21649 0 9.99999 0.783503 9.99999 1.75C9.99999 2.7165 9.21649 3.5 8.24999 3.5C7.2835 3.5 6.5 2.7165 6.5 1.75C6.5 0.783503 7.2835 0 8.24999 0Z"
    fill="#171719"
  />
</svg>
